<!--Main svg library-->

<svg xmlns="http://www.w3.org/2000/svg" class="icons-library">
  <symbol id="icon-external-link" viewBox="0 0 16 13">
    <g stroke-width="1" fill-rule="evenodd">
      <g transform="translate(-1088.000000, -125.000000)" fill-rule="nonzero">
        <g transform="translate(1088.000000, 91.000000)">
          <g transform="translate(0.000000, 30.000000)">
            <g transform="translate(0.000000, 4.000000)">
              <path
                d="M11.7271913,7.54535685 L11.1816934,7.54535685 C11.1020209,7.54535685 11.0366471,7.57087987 10.985781,7.62216473 C10.9344969,7.67315107 10.9089742,7.73849598 10.9089742,7.81808005 L10.9089742,10.5453419 C10.9089742,10.9203662 10.7755401,11.2413294 10.5085225,11.5084107 C10.2415049,11.7754322 9.92042707,11.9088385 9.54540841,11.9088385 L2.45447218,11.9088385 C2.07948338,11.9088385 1.75843541,11.7754322 1.49135812,11.5084107 C1.22434054,11.2413592 1.09084668,10.920396 1.09084668,10.5453419 L1.09084668,3.45438941 C1.09084668,3.07939501 1.22431069,2.75846165 1.49135812,2.49141023 C1.75843541,2.22432896 2.07948338,2.09086296 2.45447218,2.09086296 L8.45435278,2.09086296 C8.53402521,2.09086296 8.599399,2.06522053 8.65047413,2.01414463 C8.70154927,1.96300903 8.72707191,1.89772382 8.72707191,1.8181099 L8.72707191,1.27257394 C8.72707191,1.19310928 8.70154927,1.12770467 8.65047413,1.07665862 C8.599399,1.02552302 8.53402521,1 8.45435278,1 L2.45447218,1 C1.77840576,1 1.20025075,1.24006567 0.720066866,1.72016717 C0.24006209,2.20023881 0,2.77840245 0,3.45447897 L0,10.5454613 C0,11.221508 0.24006209,11.7997612 0.720096717,12.2796836 C1.2002806,12.7598149 1.77843561,13 2.45450203,13 L9.54540841,13 C10.221445,13 10.7996597,12.7598149 11.2797839,12.2796836 C11.7599379,11.7997612 12,11.2215378 12,10.5454613 L12,7.81828901 C12,7.73861539 11.9744475,7.67324063 11.9231634,7.62216473 C11.8720286,7.57087987 11.8066548,7.54535685 11.7271913,7.54535685 Z"/>
              <path
                d="M15.8282599,0.171618415 C15.7138193,0.0571744977 15.5781484,0 15.4216903,0 L10.7966677,0 C10.6401147,0 10.5045387,0.0571744977 10.390193,0.171618415 C10.2757523,0.285999051 10.2184529,0.421515583 10.2184529,0.57810473 C10.2184529,0.734693878 10.2757523,0.87024205 10.390193,0.984685967 L11.9799911,2.57456099 L6.09036288,8.46448347 C6.03005768,8.52469546 6,8.59398829 6,8.67214048 C6,8.75057744 6.0301526,8.81983863 6.09036288,8.88005062 L7.1201706,9.90976111 C7.18038088,9.96997311 7.24967174,10 7.32794826,10 C7.40622479,10 7.47554729,9.97000475 7.53572592,9.90976111 L13.4253858,4.01993355 L15.0153104,5.60980857 C15.1296562,5.72425249 15.2652005,5.78149027 15.4217852,5.78149027 C15.5783699,5.78149027 15.7139142,5.72425249 15.8283865,5.60980857 C15.9428271,5.4953963 16,5.35991141 16,5.20332226 L16,0.57810473 C15.9999684,0.421420661 15.9426057,0.285999051 15.8282599,0.171618415 Z"/>
            </g>
          </g>
        </g>
      </g>
    </g>
  </symbol>
</svg>

